<?xml version="1.0" encoding="UTF-8" standalone="no"?>
<!-- Created with Inkscape (http://www.inkscape.org/) -->

<svg
   xmlns:dc="http://purl.org/dc/elements/1.1/"
   xmlns:cc="http://creativecommons.org/ns#"
   xmlns:rdf="http://www.w3.org/1999/02/22-rdf-syntax-ns#"
   xmlns:svg="http://www.w3.org/2000/svg"
   xmlns="http://www.w3.org/2000/svg"
   xmlns:sodipodi="http://sodipodi.sourceforge.net/DTD/sodipodi-0.dtd"
   xmlns:inkscape="http://www.inkscape.org/namespaces/inkscape"
   id="svg3778"
   version="1.1"
   inkscape:version="0.48.4 r9939"
   width="1455"
   height="1160"
   sodipodi:docname="cfb_logo3.svg">
  <metadata
     id="metadata3784">
    <rdf:RDF>
      <cc:Work
         rdf:about="">
        <dc:format>image/svg+xml</dc:format>
        <dc:type
           rdf:resource="http://purl.org/dc/dcmitype/StillImage" />
        <dc:title></dc:title>
      </cc:Work>
    </rdf:RDF>
  </metadata>
  <defs
     id="defs3782" />
  <sodipodi:namedview
     pagecolor="#ffffff"
     bordercolor="#666666"
     borderopacity="1"
     objecttolerance="10"
     gridtolerance="10"
     guidetolerance="10"
     inkscape:pageopacity="0"
     inkscape:pageshadow="2"
     inkscape:window-width="1920"
     inkscape:window-height="1151"
     id="namedview3780"
     showgrid="false"
     inkscape:zoom="0.57543862"
     inkscape:cx="548.53639"
     inkscape:cy="460.48467"
     inkscape:window-x="0"
     inkscape:window-y="25"
     inkscape:window-maximized="1"
     inkscape:current-layer="svg3778" />
  <path
     style="fill:#4775b4;fill-opacity:1"
     d="m 1364.0488,1158.2329 c -1.9776,-1.0316 -2.565,-2.2028 -2.8111,-5.6046 -0.4567,-6.3128 0.4517,-6.9006 9.8245,-6.3581 6.6023,0.3822 8.3768,0.1622 9.9144,-1.2293 3.4098,-3.0858 3.2616,-5.4593 -0.4376,-7.0049 -1.834,-0.7664 -4.0202,-2.4434 -4.8581,-3.7269 -1.7218,-2.6372 -15.6321,-49.4055 -15.6321,-52.5571 0,-1.1237 0.7875,-2.2393 1.75,-2.4791 2.4606,-0.613 14.1927,-0.188 14.9212,0.5406 0.3317,0.3317 2.7297,9.4046 5.3288,20.1621 2.5991,10.7575 5.0369,19.8702 5.4172,20.2506 1.2449,1.2448 2.1873,-1.5933 5.9872,-18.0301 4.6288,-20.0223 5.4452,-22.7073 6.9232,-22.7711 0.6448,-0.028 3.4224,-0.197 6.1724,-0.3759 7.1322,-0.4641 9.5,0.2302 9.5,2.7856 0,2.9666 -17.3791,63.5302 -19.5327,68.0686 -0.9618,2.0268 -3.3362,4.8973 -5.2765,6.3787 -3.2433,2.4764 -4.381,2.7162 -14.1093,2.9743 -7.2469,0.1922 -11.3693,-0.1303 -13.0815,-1.0234 z m -891.79679,-18.9746 c -9.1731,-1.3504 -14.378,-5.3976 -18.2749,-14.2102 -2.6671,-6.0314 -3.166,-22.1131 -0.9328,-30.0691 1.8823,-6.706 8.6961,-13.5972 15.2623,-15.4356 7.6957,-2.1547 18.6891,-1.0041 24.4809,2.5621 7.4105,4.563 10.4549,11.0716 11.0604,23.6458 0.5749,11.9392 -0.8303,19.0868 -4.8409,24.6233 -5.1713,7.1388 -15.4423,10.5491 -26.755,8.8837 z m 9.808,-15.2885 c 3.8814,-2.0071 5.3099,-7.0864 4.8488,-17.2404 -0.3902,-8.5904 -1.852,-11.5243 -6.6579,-13.362 -3.2589,-1.2462 -8.9579,1.3357 -10.2085,4.6249 -0.5465,1.4374 -0.9936,6.8938 -0.9936,12.1253 0,9.1798 0.102,9.6139 2.923,12.4349 3.2746,3.2746 5.8083,3.6305 10.0882,1.4173 z m 116.2063,15.3814 c -15.4996,-0.9412 -14.2175,2.561 -14.2175,-38.8395 0,-27.3097 0.2827,-35.0405 1.3341,-36.4783 1.7063,-2.3336 8.355,-3.4222 21.3666,-3.4982 16.6526,-0.097 25.7368,2.7142 30.9798,9.5882 2.3525,3.0843 2.8555,4.8363 3.1686,11.0351 0.3944,7.8113 -0.7061,11.9727 -3.9405,14.8998 -2.5815,2.3362 -2.4,4.6071 0.5929,7.4187 6.8168,6.4041 5.8442,21.0744 -1.8912,28.526 -6.7219,6.4752 -17.3558,8.565 -37.3928,7.3482 z m 19.0037,-15.3579 c 4.5478,-0.7303 6.7788,-3.6217 6.7788,-8.7857 0,-6.9925 -5.6027,-10.2337 -16.5027,-9.5469 l -4.9973,0.3149 -0.2867,9.1874 -0.2867,9.1875 3.7867,0.3681 c 3.8926,0.3784 5.114,0.3014 11.5079,-0.7253 z m -0.1923,-31.5255 c 4.609,-1.2411 6.9711,-4.194 6.9711,-8.7147 0,-6.1644 -5.0406,-8.7131 -16,-8.0901 l -5.5,0.3126 -0.2893,8.1798 -0.2894,8.1798 2.7894,0.3229 c 7.0586,0.8173 8.6687,0.7924 12.3182,-0.1903 z m -542.664199,45.9187 c -10.62833,-3.0803 -17.75817,-12.5889 -19.43136,-25.9142 -1.2032,-9.5824 -0.38286,-25.9378 1.65232,-32.9428 2.30816,-7.9446 9.69344,-15.2094 17.87964,-17.5878 6.8642,-1.9944 24.457499,-1.605 27.114499,0.6001 1.1094,0.9208 1.4299,2.8592 1.2138,7.3424 l -0.2936,6.0914 -10.838199,0.2847 c -7.63,0.2005 -11.527,0.7361 -13.1652,1.8095 -4.165,2.729 -5.4966,8.1697 -5.4966,22.4582 0,21.0568 2.0605,23.6155 18.6646,23.1772 11.485099,-0.3032 12.191799,0.1047 11.731199,6.7704 -0.1331,1.925 -0.2765,4.2663 -0.3189,5.203 -0.049,1.0876 -1.4321,2.0793 -3.8269,2.7444 -4.517199,1.2545 -20.511899,1.2311 -24.885299,-0.036 z m 50.635299,-1.6048 c -4.1971,-2.2076 -6.2383,-4.1221 -8.6163,-8.0814 -3.5588,-5.9254 -4.3572,-9.6308 -4.3727,-20.2932 -0.016,-11.0311 2.1802,-17.4575 7.8436,-22.9504 5.415,-5.2519 10.2262,-6.9902 19.2614,-6.9591 10.1546,0.035 17.9716,4.3694 21.9815,12.1886 2.6464,5.1603 4.5072,18.1668 3.0551,21.3539 l -1.1098,2.4355 -16.5528,0 c -18.2758,0 -18.9627,0.2516 -16.052,5.8801 2.4267,4.6927 4.5559,5.3166 17.4112,5.102 6.4079,-0.107 12.2133,-0.1467 12.9008,-0.088 0.8363,0.071 1.25,1.9345 1.25,5.631 0,5.0925 -0.2152,5.6111 -2.75,6.6293 -1.5125,0.6076 -8.6,1.3162 -15.75,1.5748 -12.822,0.4637 -13.0754,0.4305 -18.5,-2.4228 z m 22.2338,-36.3061 c -0.4884,-4.5882 -3.5126,-7.4691 -8.202,-7.8133 -3.2812,-0.2408 -4.7995,0.1858 -6.5654,1.8449 -2.4422,2.2943 -3.9311,6.4075 -2.9147,8.0521 0.3522,0.5698 4.3006,0.8693 9.2806,0.704 8.5836,-0.2849 8.6651,-0.3119 8.4015,-2.7877 z m 30.0162,37.9689 -2.25,-0.9045 0,-28.5569 0,-28.557 2.5651,-0.9753 c 3.7495,-1.4255 8.1701,-1.1947 12.0093,0.6271 3.0973,1.4698 3.7657,1.4698 8.0792,0 7.0876,-2.4149 16.2866,-2.1223 20.3565,0.6477 4.9493,3.3684 6.9099,6.6184 7.9967,13.2554 1.2377,7.559 1.2735,41.503 0.046,43.4437 -0.6628,1.0475 -2.8745,1.4404 -7.9833,1.418 -3.8866,-0.017 -7.2886,-0.253 -7.5599,-0.5243 -0.2713,-0.2713 -0.6094,-9.7504 -0.7514,-21.0646 -0.2378,-18.9563 -0.4149,-20.7446 -2.2555,-22.777 -1.6339,-1.8041 -2.7689,-2.1186 -6.2356,-1.7278 -2.331,0.2627 -5.3696,1.2191 -6.7525,2.1252 l -2.5145,1.6475 0,20.5083 c 0,15.5331 -0.3032,20.6025 -1.25,20.8963 -3.2585,1.0114 -11.4874,1.3272 -13.5,0.5182 z m 74.0647,-0.4326 c -5.7663,-2.5079 -6.6527,-5.8005 -7.2661,-26.9908 l -0.5486,-18.9545 -4.5,-1.0885 c -4.4755,-1.0825 -4.5017,-1.1141 -4.805,-5.7993 -0.2776,-4.289 -0.07,-4.8001 2.3151,-5.7071 1.441,-0.5478 3.7158,-0.9961 5.055,-0.9961 2.1612,0 2.4349,-0.4358 2.4349,-3.8776 0,-2.1677 0.6395,-4.4083 1.4503,-5.0812 1.8171,-1.5081 14.2249,-3.6993 15.2339,-2.6903 0.4106,0.4106 0.665,2.6371 0.5653,4.9478 -0.2345,5.4368 0.3453,6.1706 5.7505,7.2787 l 4.5,0.9226 0.3105,4.8895 c 0.3649,5.747 -0.2379,6.5618 -5.2104,7.0437 -2.0504,0.1987 -4.0081,0.6414 -4.3504,0.9838 -0.8429,0.8428 -0.6669,31.099 0.189,32.4838 0.3736,0.6046 1.9659,1.0992 3.5385,1.0992 5.2972,0 6.0228,0.783 6.0228,6.5 0,3.8977 -0.4155,5.4454 -1.5818,5.893 -2.9261,1.1228 -15.8887,0.5416 -19.1035,-0.8567 z m 41.9073,-1.0665 c -9.5197,-4.8277 -13.222,-12.5132 -13.222,-27.4472 0,-11.3124 2.0281,-18.0129 7.1263,-23.5438 4.8512,-5.2629 10.7357,-7.4825 19.8018,-7.469 16.3451,0.024 25.6545,10.6856 24.8774,28.4902 l -0.3055,7 -17,0.5 -17,0.5 0.2126,3 c 0.1298,1.8308 1.2681,3.9154 2.9207,5.3488 2.5573,2.2182 3.3802,2.3363 14.7873,2.1235 6.6437,-0.124 12.6654,-0.1685 13.3816,-0.099 0.9309,0.091 1.2161,1.6213 1,5.3683 -0.2711,4.702 -0.6111,5.3918 -3.3022,6.7 -1.9742,0.9598 -7.2742,1.586 -15.5,1.8316 -11.943,0.3565 -12.7352,0.2538 -17.778,-2.3035 z m 21.778,-36.3349 c 0,-1.5759 -0.9327,-4.0509 -2.0726,-5.5 -2.7881,-3.5445 -9.5576,-3.7507 -12.6382,-0.3849 -2.3717,2.5913 -3.7014,6.2741 -2.7948,7.7411 0.343,0.5549 4.422,1.0089 9.0646,1.0089 l 8.441,0 0,-2.8651 z m 30.25,37.834 -2.25,-0.9045 0,-28.497 c 0,-26.1231 0.1457,-28.5736 1.75,-29.4164 2.4647,-1.2949 12.8242,-0.7492 14.6573,0.7721 1.2433,1.0319 2.3424,0.956 5.9147,-0.4083 2.4132,-0.9216 5.6905,-1.527 7.2828,-1.3452 2.8285,0.3228 2.8952,0.466 2.8952,6.2214 0,6.5781 -0.1058,6.6916 -7.9609,8.5441 -2.7285,0.6435 -5.541,1.6515 -6.25,2.2399 -0.9751,0.8093 -1.2891,6.0412 -1.2891,21.4788 0,15.4536 -0.3035,20.5032 -1.25,20.7969 -3.2586,1.0114 -11.4875,1.3272 -13.5,0.5182 z m 77.5,0.2207 -3.75,-0.3103 -0.1751,-17.1897 c -0.096,-9.4543 -0.076,-18.784 0.044,-20.7327 0.3725,-6.0162 -1.0587,-8.2862 -5.9757,-9.478 -4.3533,-1.0551 -4.3964,-1.1081 -4.6988,-5.7821 -0.3287,-5.0808 -0.3016,-5.1086 5.9992,-6.1537 3.5283,-0.5852 3.7225,-0.8241 4.3309,-5.3279 1.744,-12.9087 4.4256,-15.2058 17.7574,-15.2115 9.9288,0 10.6008,0.5333 9.8969,7.9151 -0.3601,3.7758 -0.5203,3.927 -5.0256,4.7448 -4.267,0.7745 -4.6789,1.1045 -4.9581,3.9724 -0.2932,3.0112 -0.1256,3.1602 4.5,4.0008 l 4.8045,0.8731 0.3137,4.9619 c 0.3637,5.7546 -1.1687,7.5282 -6.5048,7.5282 l -3.3089,0 0,22.441 c 0,16.87 -0.3103,22.6346 -1.25,23.2211 -1.3338,0.8325 -5.8931,1.033 -12,0.5275 z m 94.5,-0.01 -2.25,-0.3195 0,-29.3013 0,-29.3013 6.0385,-0.6832 c 4.4982,-0.5089 6.8134,-0.2966 9.0763,0.8323 2.7179,1.3559 3.4418,1.3537 6.8765,-0.021 8.1629,-3.2661 12.4841,0.1534 10.4419,8.2629 -0.8876,3.5244 -1.2099,3.7605 -6.5905,4.8286 -9.1684,1.8198 -8.8405,0.9539 -8.858,23.3941 -0.01,10.7952 -0.4068,20.2455 -0.8852,21.0008 -0.8351,1.3184 -8.6062,2.0519 -13.8495,1.3072 z m 137.3801,-0.4629 c -1.4949,-1.0942 -1.6363,-4.1035 -1.3967,-29.7175 l 0.2666,-28.5 8,0 8,0 0.2653,28.7755 c 0.2077,22.5141 -0.01,28.8633 -1,29.1789 -3.7757,1.2039 -12.625,1.3686 -14.1352,0.2631 z m 39.4511,-1.3643 c -9.5865,-4.7771 -13.7746,-15.0171 -12.8421,-31.3988 0.5899,-10.3621 2.8873,-16.0555 8.5299,-21.1379 4.7629,-4.2901 9.3909,-5.8053 17.731,-5.8053 8.5096,0 13.0712,1.5524 18.0521,6.1436 6.1205,5.6417 7.9392,10.9863 7.944,23.3452 0,12.4556 -0.7417,16.0181 -4.5667,21.7928 -4.4958,6.7883 -10.9413,9.708 -21.4294,9.708 -6.7633,0 -8.9879,-0.4388 -13.4188,-2.6468 z m 18.91,-14.1906 c 3.3164,-3.3164 4.5713,-9.423 3.6904,-17.9579 -0.9085,-8.8025 -5.9672,-13.5674 -11.9779,-11.2822 -3.6855,1.4013 -5.7441,5.0684 -6.3972,11.3959 -1.2325,11.9426 2.6522,20.6816 9.1935,20.6816 1.5816,0 3.8002,-1.1464 5.4912,-2.8374 z m 35.7079,15.913 c -5.237,-1.071 -5.8588,-1.9951 -5.5063,-8.1828 l 0.3072,-5.392 3.5,0.1276 c 17.8104,0.6491 19.2147,0.5863 20.7283,-0.9274 0.8498,-0.8498 1.2842,-2.2253 0.9652,-3.0565 -0.319,-0.8313 -4.8451,-4.0216 -10.0579,-7.0895 -9.9413,-5.8508 -14.2456,-9.918 -15.2194,-14.3813 -0.3208,-1.4701 -0.7306,-3.1677 -0.9106,-3.7724 -0.1801,-0.6047 0.1165,-3.1809 0.6591,-5.7247 1.1367,-5.3298 4.8249,-9.0234 10.6163,-10.6318 4.8882,-1.3576 19.5332,-1.1912 25.219,0.2865 l 4.5,1.1695 0,6 0,6 -11.2351,-0.3708 c -9.6907,-0.3198 -11.3212,-0.1463 -11.8618,1.2627 -0.9119,2.3763 0.9283,4.099 9.3367,8.7405 13.6107,7.5133 16.8463,11.7861 16.0644,21.2143 -0.5316,6.4112 -3.2681,10.6664 -8.5345,13.2713 -4.1393,2.0473 -21.3843,2.9271 -28.5706,1.4576 z m 57.8009,-0.4773 c -8.2329,-3.6341 -9.4022,-8.0082 -9.4561,-35.3723 l -0.044,-22.2747 2.75,-1.0488 c 1.7323,-0.6606 4.7852,-0.744 8.25,-0.2252 l 5.5,0.8235 0.5,21.3325 c 0.4603,19.6411 0.6539,21.445 2.4411,22.75 2.7325,1.9954 7.4935,1.7547 11.3089,-0.5715 l 3.25,-1.9816 0,-20.5395 0,-20.5394 2.5651,-0.9753 c 1.4108,-0.5363 4.0815,-0.9752 5.9349,-0.9752 1.8534,0 4.5241,0.4389 5.9349,0.9752 l 2.5651,0.9753 0,28.4657 c 0,19.2501 -0.3486,28.6812 -1.0767,29.1312 -2.034,1.257 -13.2535,0.551 -14.7316,-0.9271 -1.227,-1.227 -1.983,-1.1647 -5.556,0.4578 -4.911,2.23 -15.6338,2.5066 -20.1357,0.5194 z m 58.1991,0.4872 c -5.2389,-1.0839 -5.8587,-2.0061 -5.5063,-8.1919 l 0.3072,-5.3928 12.2346,0.3719 c 10.9538,0.333 12.3052,0.1879 12.9091,-1.3859 1.0738,-2.7982 -0.7625,-4.6531 -9.9222,-10.0222 -13.5022,-7.9147 -15.7241,-10.6945 -15.7178,-19.6641 0,-6.3379 2.4382,-10.9003 7.202,-13.5012 4.4207,-2.4135 26.6575,-2.6207 31.2943,-0.2915 3.1668,1.5907 4.3165,5.6037 3.0505,10.6477 -0.5953,2.372 -0.6238,2.3763 -11.3383,1.7256 -9.1391,-0.5551 -10.9387,-0.4149 -12.063,0.9398 -0.7268,0.8758 -1.0414,2.0453 -0.6992,2.599 0.3422,0.5537 4.7684,3.4528 9.8361,6.4425 13.2276,7.8037 15.7139,10.9562 15.7139,19.9248 0,6.3904 -2.5993,10.9874 -8.0034,14.1549 -2.879,1.6874 -5.4397,2.083 -14.4966,2.2396 -6.05,0.1046 -12.7104,-0.1637 -14.8009,-0.5962 z m 60.5259,-1.0889 c -1.8012,-1.0982 -3.8039,-3.234 -4.4504,-4.7463 -0.6836,-1.5988 -1.4055,-10.6885 -1.7251,-21.7201 l -0.5495,-18.9705 -4.301,-0.8484 c -4.8529,-0.9572 -6.7485,-3.9322 -5.6609,-8.8842 0.5301,-2.4134 1.1085,-2.8263 3.9595,-2.8263 5.621,0 6.5024,-0.7634 6.5024,-5.6317 0,-5.2208 1.6047,-6.2032 10.8036,-6.6139 l 5.6964,-0.2544 0.5,5.5 c 0.4986,5.4855 0.5105,5.5023 4.5,6.3681 2.2,0.4775 4.5625,1.0259 5.25,1.2186 0.7854,0.2203 1.25,2.1986 1.25,5.3229 0,5.5611 -0.6566,6.2737 -6.5,7.0553 l -4,0.5351 -0.2767,15.3654 c -0.3046,16.918 0.044,18.1346 5.1991,18.1346 4.2288,0 5.5776,1.5719 5.5776,6.5 0,2.255 -0.54,4.64 -1.2,5.3 -0.7353,0.7353 -4.3175,1.1986 -9.25,1.1963 -6.2809,0 -8.7698,-0.4426 -11.325,-2.0005 z m 36.7648,-0.2458 c -6.0089,-4.0896 -7.4902,-7.0722 -7.4863,-15.0733 0.01,-12.8455 5.1543,-17.4279 20.8174,-18.5305 l 9.1791,-0.6462 0.3067,-3.6897 c 0.4772,-5.7394 -2.3495,-7.0602 -14.5312,-6.79 -5.3765,0.1193 -10.338,0.1635 -11.0255,0.098 -0.8349,-0.079 -1.25,-1.9535 -1.25,-5.6434 0,-5.0815 0.2206,-5.6169 2.75,-6.6745 1.5343,-0.6416 8.2756,-1.1832 15.25,-1.2253 14.2216,-0.086 18.1602,1.146 22.70159,7.1001 2.1836,2.8627 2.7337,4.9931 3.5143,13.6093 1.0453,11.5364 0.7012,37.1387 -0.5154,38.3509 -1.1335,1.1294 -13.69309,0.6154 -15.18329,-0.6214 -0.8635,-0.7166 -2.3327,-0.5715 -4.8461,0.4786 -5.6548,2.3628 -15.6738,1.9846 -19.6813,-0.7429 z m 22.4387,-12.3214 c 1.6918,-1.6918 2.0997,-8.0461 0.6622,-10.316 -1.2992,-2.0516 -11.0052,-0.9501 -12.7586,1.4479 -1.6582,2.2677 -1.735,7.6366 -0.1321,9.2395 1.7744,1.7744 10.343,1.5141 12.2285,-0.3714 z m 32.82149,13.5764 -2.25,-0.9406 0,-28.4732 c 0,-21.6143 0.2994,-28.6582 1.243,-29.2414 1.2351,-0.7633 14.8659,-0.5742 15.6574,0.2172 0.3909,0.391 0.1785,57.7201 -0.2151,58.0519 -0.9456,0.797 -12.7001,1.1114 -14.4353,0.3861 z m 34.25,0.01 -6,-0.5127 -0.2654,-28.7689 -0.2653,-28.7689 2.2653,-0.8389 c 2.8718,-1.0634 10.5901,-0.4863 13.4508,1.0057 1.716,0.895 3.0628,0.7888 6.2703,-0.4946 2.3854,-0.9544 6.927,-1.6344 10.9167,-1.6344 8.3919,0 12.5741,2.3745 15.8542,9.0014 2.0963,4.2351 2.232,5.8367 2.3181,27.3472 0.05,12.5667 -0.052,22.9815 -0.2266,23.144 -0.4015,0.3729 -10.6015,0.8778 -13.4548,0.666 -2.0959,-0.1556 -2.1438,-0.5568 -2.5146,-21.0698 -0.3397,-18.7885 -0.5699,-21.1233 -2.2684,-23 -2.333,-2.578 -6.8325,-2.709 -11.5803,-0.3372 l -3.5,1.7484 -0.5,20.8867 c -0.5735,23.9567 0.1177,22.5332 -10.5,21.626 z m 63.4844,-0.8668 c -5.0945,-2.7109 -7.9482,-8.3154 -7.9664,-15.6459 -0.031,-12.381 5.8487,-17.4398 21.4147,-18.4257 l 9.0673,-0.5743 0.309,-3.191 c 0.2169,-2.2407 -0.3445,-3.8445 -1.8852,-5.3852 -2.0629,-2.0629 -2.8463,-2.1633 -13.0874,-1.6779 -12.4996,0.5925 -13.5546,-0.035 -12.3215,-7.3338 0.963,-5.7004 2.8274,-6.3627 17.9851,-6.3893 11.7648,-0.021 13.3817,0.196 17.0172,2.2805 2.2094,1.2668 5.1344,3.9324 6.5,5.9237 2.4396,3.5574 2.4883,4.0196 2.8016,26.5779 0.2051,14.7672 -0.047,23.323 -0.7058,23.9821 -1.5487,1.5487 -11.2953,1.6102 -13.794,0.087 -1.8318,-1.1167 -2.7472,-1.0929 -5.7178,0.1483 -5.0546,2.1119 -15.3104,1.9152 -19.6168,-0.3763 z m 21.3881,-12.429 c 1.353,-0.9893 1.683,-2.4205 1.4411,-6.25 l -0.3136,-4.9669 -4.3317,-0.3115 c -6.4311,-0.4624 -9.1683,1.7024 -9.1683,7.2512 0,2.5792 0.5162,4.6019 1.25,4.898 2.5115,1.0134 9.4145,0.6281 11.1225,-0.6208 z m 41.6275,13.5781 c -1.375,-0.2367 -4.1875,-0.8677 -6.25,-1.4024 l -3.75,-0.972 0,-38.3545 c 0,-43.2187 -0.7665,-39.58 8.3318,-39.5531 7.6233,0.023 8.1473,0.6354 8.2953,9.7 0.07,4.2816 0.1823,8.3472 0.25,9.0347 0.086,0.8759 2.33,1.25 7.4972,1.25 12.7793,0 19.6759,3.8405 24.2424,13.5 2.0759,4.3911 2.3638,6.4613 2.3638,17 0,10.4709 -0.2972,12.6381 -2.3318,17.0073 -2.7826,5.9754 -8.1755,10.9897 -13.3714,12.4326 -3.6389,1.0105 -20.1286,1.2437 -25.2773,0.3574 z m 21.0757,-15.8779 c 2.2758,-2.4224 2.4243,-3.2856 2.4243,-14.0865 0,-11.4211 -0.021,-11.5242 -2.862,-13.9679 -2.3799,-2.047 -3.7276,-2.4115 -8,-2.1634 l -5.138,0.2984 -0.5654,14.5 c -0.311,7.975 -0.1827,15.2875 0.2851,16.25 0.6509,1.339 2.0933,1.75 6.1412,1.75 4.3942,0 5.7012,-0.4372 7.7148,-2.5806 z m 35.9243,15.6889 -4.5,-0.6083 0,-29 0,-29 8,0 8,0 0.2659,28.4341 c 0.1462,15.6388 -0.079,28.7539 -0.5,29.1447 -1.2854,1.1925 -6.5208,1.6709 -11.2659,1.0295 z m 29.5,-2e-4 -4,-0.6081 -0.2619,-38.9336 c -0.2051,-30.483 0.012,-39.1075 1,-39.7347 1.9803,-1.2571 13.2208,-0.9728 14.5619,0.3683 0.8915,0.8915 1.2,11.0366 1.2,39.4648 0,36.8079 -0.074,38.3042 -1.9343,39.3 -2.05,1.0971 -4.1078,1.125 -10.5657,0.1433 z m 27.198,-0.2572 c -1.5351,-0.8591 -1.698,-3.6734 -1.698,-29.3416 0,-16.9346 0.3849,-28.6292 0.9539,-28.9808 1.6245,-1.004 11.4238,-1.2994 13.7961,-0.4159 l 2.25,0.8379 0,28.4657 c 0,20.6396 -0.3213,28.6644 -1.1688,29.1881 -1.82,1.1248 -12.2391,1.3066 -14.1332,0.2466 z m 41.0646,-0.4163 c -5.3978,-2.9288 -6.2024,-6.1308 -6.7566,-26.889 l -0.506,-18.9544 -4.4921,-1.0915 c -3.4761,-0.8446 -4.7039,-1.6939 -5.4288,-3.7553 -1.3575,-3.8601 0.6313,-7.7444 3.9652,-7.7444 4.3322,0 6.4541,-1.7331 6.471,-5.2852 0.023,-4.7728 1.0172,-5.6443 7.8053,-6.84 8.3618,-1.4729 9.1794,-1.0223 9.1794,5.0586 0,4.0354 0.3997,5.2101 2.0781,6.1084 1.143,0.6117 2.6055,0.9117 3.25,0.6666 0.6446,-0.2451 2.1844,-0.069 3.4219,0.3908 1.9196,0.7135 2.25,1.5666 2.25,5.8096 0,5.5515 -0.2742,5.8825 -5.4191,6.5412 -1.9993,0.256 -4.0728,0.736 -4.608,1.0667 -1.4753,0.9118 -1.2651,30.7911 0.2271,32.2833 0.66,0.66 2.595,1.2 4.3,1.2 4.1509,0 5.5,1.5944 5.5,6.5 0,2.255 -0.54,4.64 -1.2,5.3 -1.7625,1.7625 -16.6149,1.4917 -20.0374,-0.3654 z m -679.35079,-66.8038 c -0.289,-0.7531 -0.3874,-3.7906 -0.2186,-6.75 l 0.3068,-5.3808 7.3425,-0.2957 c 4.5524,-0.1833 7.8773,0.1482 8.75,0.8725 1.7397,1.4438 1.8918,10.0389 0.2075,11.7232 -1.7554,1.7554 -15.705,1.6113 -16.3882,-0.1692 z m 361.99999,0 c -0.289,-0.7531 -0.3873,-3.7906 -0.2186,-6.75 l 0.3068,-5.3808 7.3425,-0.2957 c 4.5524,-0.1833 7.8773,0.1482 8.75,0.8725 1.7397,1.4438 1.8918,10.0389 0.2075,11.7232 -1.7554,1.7554 -15.7049,1.6113 -16.3882,-0.1692 z m 214.5795,-1.1537 c -0.5452,-1.434 -0.9913,-3.4487 -0.9913,-4.4771 0,-1.0284 0.4461,-3.0431 0.9913,-4.4771 0.9654,-2.5391 1.1944,-2.5997 8.75,-2.3151 l 7.7587,0.2922 0,6.5 0,6.5 -7.7587,0.2922 c -7.5556,0.2846 -7.7846,0.224 -8.75,-2.3151 z m 60.2465,1.3607 c -1.7138,-1.7138 -1.5899,-10.3007 0.1697,-11.761 0.8727,-0.7243 4.1976,-1.0558 8.75,-0.8725 l 7.3425,0.2957 0,6.5 0,6.5 -7.5122,0.2878 c -4.9847,0.1909 -7.9287,-0.1287 -8.75,-0.95 z M 120.92101,1013.8098 c -1.1126,-0.2965 -1.8453,-2.0735 -2.3151,-5.6147 -0.9519,-7.1758 -0.452,-67.77133 0.5821,-70.56691 0.704,-1.90314 1.4552,-2.2237 4.6011,-1.96352 l 3.7597,0.31094 0.2847,10.83906 0.2847,10.83906 5.2153,-0.83906 c 14.8435,-2.3881 22.7915,-0.0109 26.5763,7.94865 1.7803,3.74379 2.0225,6.49232 2.1778,24.71229 0.096,11.27499 0.1267,21.23499 0.068,22.13339 -0.1343,2.0545 -3.5908,3.0133 -6.6586,1.8469 -2.3366,-0.8884 -2.3373,-0.8942 -2.6427,-22.52287 l -0.3055,-21.63426 -2.9422,-2.52894 c -2.7255,-2.34266 -3.5133,-2.49588 -10.6944,-2.08017 -4.2637,0.24682 -8.4522,1.02973 -9.3078,1.7398 -1.3228,1.0978 -1.5556,4.64425 -1.5556,23.69335 l 0,22.40229 -2.5651,0.9753 c -1.4108,0.5363 -2.6483,0.923 -2.75,0.8592 -0.1017,-0.064 -0.9174,-0.3112 -1.8127,-0.5498 z m 68.6278,-0.7692 c -5.0953,-1.8887 -11.0241,-8.1882 -12.4125,-13.1884 -1.4245,-5.1302 -1.3901,-25.17452 0.051,-29.47737 3.7299,-11.14014 15.9672,-17.12107 28.5563,-13.95673 10.1888,2.56101 15.1755,9.40029 16.0389,21.99755 0.4046,5.90222 0.1968,7.87306 -0.9284,8.80691 -0.9718,0.80653 -7.0292,1.29372 -18.3773,1.47807 l -16.9276,0.27498 0.11,3.7051 c 0.1516,5.10009 2.0929,9.35829 5.2411,11.49619 2.2142,1.5035 4.7821,1.7987 15.6489,1.7987 l 13,0 0.3099,2.6827 c 0.4578,3.9629 -2.5432,5.0411 -15.2571,5.4818 -8.0954,0.2806 -12.1231,-0.014 -15.0528,-1.0995 z m 21.3917,-32.4769 c 2.2662,-1.43506 0.8514,-9.79951 -2.1684,-12.81925 -4.5902,-4.59021 -14.5157,-4.69148 -19.2999,-0.19691 -2.5431,2.38909 -4.9328,9.15833 -4.0475,11.46525 0.2801,0.73015 1.9977,1.51097 3.8167,1.73515 6.4875,0.79951 20.3312,0.68197 21.6991,-0.18424 z m 54.3583,32.8714 -2.25,-0.8951 0,-36.83217 c 0,-27.31395 0.3101,-37.14233 1.2,-38.03222 1.5832,-1.58325 10.2809,-1.54559 11.5467,0.05 0.5454,0.6875 7.6785,13.9625 15.8515,29.5 8.1729,15.5375 15.1556,28.24999 15.5172,28.24999 1.432,0 2.0247,-10.21173 1.8766,-32.33196 -0.085,-12.74242 -0.1184,-23.9814 -0.074,-24.97553 0.068,-1.49822 0.8087,-1.75488 4.3315,-1.5 l 4.25,0.3075 0,38 0,37.99999 -5.5901,0.2951 c -3.6826,0.1945 -5.9479,-0.1468 -6.6387,-1 -0.5768,-0.7123 -7.441,-13.4451 -15.2538,-28.29509 -7.8128,-14.85 -14.8379,-27.65893 -15.6112,-28.46429 -1.7312,-1.8028 -1.629,-3.55632 -1.786,30.62883 -0.066,14.39045 -0.3452,26.37205 -0.6202,26.62575 -1.2392,1.1432 -4.6968,1.486 -6.75,0.6692 z m 80.7971,-0.2644 c -5.2109,-1.6612 -10.6768,-7.7088 -12.492,-13.8215 -1.9857,-6.68652 -2.0321,-21.90892 -0.087,-28.44209 2.5542,-8.57773 8.8563,-13.74243 18.297,-14.99479 10.732,-1.42364 19.9621,3.24202 24.3572,12.31208 2.0211,4.17115 2.297,6.21625 2.2597,16.75121 -0.047,13.15769 -1.2517,17.61459 -6.1855,22.87609 -5.6621,6.0383 -16.7921,8.3021 -26.1498,5.319 z m 15.5075,-8.2881 c 5.3735,-2.5498 7.4454,-8.0472 7.4454,-19.75483 0,-15.12781 -3.5268,-20.65216 -13.1846,-20.65216 -10.8341,0 -13.9315,4.59548 -13.8983,20.62016 0.026,12.52343 1.6016,16.89003 7.0829,19.62823 4.3497,2.173 8.207,2.2217 12.5546,0.1586 z m 42.7665,8.4043 c -1.1983,-0.5794 -2.6534,-2.2364 -3.2335,-3.6824 -2.332,-5.8127 -14.2035,-49.29088 -13.8983,-50.90135 0.227,-1.19811 1.4745,-1.82269 4.0707,-2.03801 4.5753,-0.37946 4.0128,-1.65423 10.8197,24.52023 2.8149,10.8241 5.5124,20.71743 5.9944,21.98523 2.1295,5.6009 3.6042,2.3722 10.0239,-21.94499 l 6.402,-24.25 4.1233,-0.30131 c 2.6999,-0.19729 4.2916,0.14791 4.6107,1 0.2681,0.71572 -1.9305,9.85131 -4.8858,20.30131 -10.5538,37.31889 -10.1826,36.55039 -17.5982,36.43229 -2.3375,-0.037 -5.2305,-0.5417 -6.4289,-1.121 z m 50.1703,-0.6142 c -5.0729,-2.3831 -10.0753,-8.0369 -11.4313,-12.9198 -1.4025,-5.0503 -1.3493,-25.11532 0.078,-29.37807 3.2181,-9.61156 10.4358,-14.34086 21.9403,-14.37604 6.7025,-0.0205 8.141,0.32461 12.4453,2.98574 3.457,2.13731 5.6068,4.44699 7.4215,7.97331 2.3691,4.6036 2.5548,5.94741 2.5548,18.49108 0,12.57368 -0.1761,13.84058 -2.5,17.98228 -1.375,2.4506 -4.3957,5.7865 -6.7127,7.4132 -3.6086,2.5335 -5.3293,3.0117 -12,3.3345 -6.1137,0.2959 -8.6488,-0.028 -11.7959,-1.5062 z m 17.9733,-8.5821 c 4.7936,-3.1408 6.0369,-7.0904 6.0173,-19.11499 -0.026,-16.0063 -3.0665,-20.5 -13.8701,-20.5 -6.639,0 -10.6479,2.83906 -12.4359,8.80679 -1.4262,4.76011 -1.5443,18.42218 -0.1999,23.1099 1.072,3.7381 4.4094,7.8113 7.5239,9.1827 2.8547,1.2571 10.0354,0.435 12.9647,-1.4844 z m 58.7853,9.3445 -2.25,-0.8951 0,-36.45038 c 0,-20.04774 0.2731,-37.16224 0.607,-38.03222 0.7583,-1.97624 10.625,-2.24606 12.1324,-0.33179 0.5414,0.6875 7.6326,13.9625 15.7582,29.5 8.1255,15.5375 15.1627,28.24999 15.6381,28.24999 0.4753,0 0.8643,-12.56319 0.8643,-27.9182 0,-15.35502 0.2731,-28.63002 0.607,-29.5 0.4056,-1.05697 1.8631,-1.58179 4.393,-1.58179 2.5298,0 3.9874,0.52482 4.393,1.58179 0.9575,2.49524 0.6765,72.76 -0.2971,74.2973 -1.4092,2.2247 -10.2293,1.6444 -12.2257,-0.8045 -0.8963,-1.0995 -7.82,-13.8286 -15.386,-28.28684 -7.5659,-14.45826 -14.2178,-26.87155 -14.782,-27.58508 -2.2486,-2.84406 -2.6973,2.10295 -2.6445,29.15796 0.03,15.32336 -0.083,27.97996 -0.2517,28.12576 -1.12,0.9704 -4.6633,1.2261 -6.556,0.4731 z m 80.4052,-0.4181 c -4.7618,-1.6979 -8.2019,-4.8374 -11.0026,-10.0414 -1.9003,-3.5311 -2.1526,-5.5856 -2.1526,-17.52668 0,-12.54367 0.1856,-13.88748 2.5547,-18.49108 5.9093,-11.48277 22.352,-14.97683 34.0442,-7.23436 2.0787,1.37645 4.5388,4.52906 6.3273,8.10809 2.6877,5.37871 2.9254,6.72343 2.9164,16.5 -0.012,13.57333 -1.3874,18.45203 -6.6972,23.76173 -6.1743,6.1744 -16.824,8.1919 -25.9902,4.9237 z m 18.5557,-10.2435 c 3.582,-3.4317 4.7765,-7.8474 4.7835,-17.68187 0.011,-14.95546 -3.7253,-20.61602 -13.6063,-20.61602 -10.8037,0 -13.8441,4.4937 -13.8702,20.5 -0.015,9.26849 0.3022,11.55089 2.0161,14.49999 4.2729,7.3526 14.7076,9.0169 20.6769,3.2979 z m 30.1444,10.9425 c -2.8799,-0.4725 -2.9424,-1.3015 -2.3553,-31.24039 l 0.5,-25.5 3.5856,-0.30056 c 2.2968,-0.19254 4.0402,0.24728 4.8505,1.22366 1.1134,1.34145 1.6001,1.35095 4.0595,0.0792 1.5369,-0.79479 4.5987,-1.73358 6.804,-2.08622 3.3429,-0.53456 4.1831,-0.31682 5.0536,1.30973 2.091,3.90705 0.4141,5.96141 -5.8761,7.19893 -10.2511,2.01678 -9.9383,1.2075 -10.227,26.4614 -0.2387,20.88475 -0.3416,21.91625 -2.2501,22.54605 -1.1,0.363 -2.9651,0.5017 -4.1447,0.3082 z m 43.436,-0.1588 c -4.8573,-1.5897 -8.5709,-4.9982 -11.2053,-10.2848 -2.3859,-4.7879 -2.586,-6.2038 -2.586,-18.29679 0,-12.10677 0.1982,-13.50508 2.5966,-18.31816 1.9279,-3.86865 3.7953,-5.91544 7.25,-7.94634 4.1391,-2.43321 5.671,-2.74018 13.8624,-2.77784 5.0649,-0.0233 9.5602,-0.39355 9.9894,-0.82281 0.4293,-0.42925 1.0102,-4.9102 1.291,-9.95765 l 0.5106,-9.1772 3.3951,-0.32418 c 2.0419,-0.19497 3.7298,0.20363 4.2347,1 0.4617,0.7283 0.8464,17.84585 0.8549,38.039 0.015,36.39597 0,36.72467 -2.1055,37.84977 -2.6584,1.4228 -24.4386,2.2113 -28.0879,1.017 z m 19.905,-8.4421 c 0.442,-0.4407 0.9399,-8.9773 1.1065,-18.97035 0.3711,-22.2647 0.4996,-21.96856 -9.5053,-21.90593 -13.6638,0.0855 -16.7828,4.52408 -16.1509,22.98435 0.4173,12.19233 1.6953,15.36933 7.1788,17.84653 3.3346,1.5064 15.8725,1.5391 17.3709,0.045 z m 28.5378,8.2568 -2.2659,-0.8436 0.2659,-27.77633 0.2659,-27.77636 4,0 4,0 0,27.88545 c 0,26.97394 -0.065,27.90944 -2,28.61994 -1.1,0.4039 -3.0197,0.3548 -4.2659,-0.1091 z m 28.2659,0.6122 c -0.55,-0.1834 -2.2649,-0.6134 -3.8108,-0.9553 -2.4614,-0.5445 -2.7722,-1.0216 -2.5,-3.8375 l 0.3108,-3.2157 11.2467,0.3672 c 13.3488,0.4357 16.2533,-0.6785 16.2533,-6.2353 0,-4.0724 -1.2559,-5.2657 -13.7878,-13.10073 -11.125,-6.95548 -14.2122,-10.69794 -14.2122,-17.2287 0,-5.6236 2.1739,-9.79866 6.2669,-12.03553 2.6133,-1.42822 5.5671,-1.75434 15.4085,-1.70126 13.3782,0.0722 15.6453,0.87387 15.1251,5.34873 l -0.3005,2.5856 -9.7564,-0.32547 c -14.1412,-0.47174 -19.1557,1.80111 -17.2463,7.8171 0.3502,1.10323 5.1377,4.76041 10.7327,8.19869 15.6148,9.59561 19.0518,14.16353 17.3764,23.09417 -1.5589,8.3095 -7.719,11.6994 -21.1064,11.6146 -4.95,-0.031 -9.45,-0.2071 -10,-0.3906 z m 46.2361,-0.7139 c -1.6397,-1.2035 -1.7452,-3.9686 -1.5,-39.29459 l 0.2639,-38 3.3771,-0.32284 c 1.8575,-0.17757 3.853,0.15301 4.4346,0.73462 0.6772,0.67713 0.9972,7.44709 0.8898,18.82284 -0.1686,17.86301 0.4394,23.80959 2.2985,22.48038 0.55,-0.39325 4.825,-4.99 9.5,-10.215 4.675,-5.225 8.95,-9.83061 9.5,-10.23469 1.481,-1.08812 9.2859,-0.92075 9.9873,0.21416 0.5187,0.83931 -17.8172,21.87029 -20.5287,23.54612 -1.9973,1.23434 -0.7782,3.97322 4.7914,10.76538 13.9227,16.97882 16.1922,19.99352 15.6778,20.82572 -0.6569,1.063 -8.4958,1.1557 -9.9752,0.118 -0.5761,-0.4041 -4.67,-5.2351 -9.0975,-10.7357 -4.4275,-5.5005 -8.7937,-10.61809 -9.7026,-11.3724 -1.8579,-1.54195 -1.9647,-0.8242 -2.0886,14.0358 -0.035,4.2143 -0.2899,7.8902 -0.566,8.1687 -1.3427,1.3541 -5.6718,1.6304 -7.2618,0.4635 z m 143.1357,-1.5929 c -4.5054,-2.3537 -5.8344,-3.7326 -8.3642,-8.6789 -2.8314,-5.5361 -3.0076,-6.5585 -3.0076,-17.45169 0,-8.81523 0.4355,-12.69988 1.8286,-16.31051 3.6236,-9.39142 13.7033,-14.7367 25.1033,-13.31236 7.2068,0.90042 12.76709,4.66415 16.19489,10.96208 2.3759,4.36536 2.8005,6.45421 3.179,15.64074 0.5551,13.47354 -1.2133,20.35644 -6.6192,25.76234 -6.84149,6.8415 -18.93459,8.2886 -28.31479,3.3883 z m 19.6973,-7.655 c 4.2657,-2.795 5.8066,-7.8272 5.8322,-19.04669 0.035,-15.48631 -3.4417,-20.5 -14.2168,-20.5 -9.684,0 -13.1967,5.5289 -13.1626,20.71788 0.026,11.80771 1.8958,16.97881 7.0942,19.62541 4.0455,2.0596 10.6493,1.6956 14.453,-0.7966 z m 37.01929,8.1868 c -2.3105,-1.3193 -4.7664,-3.8708 -6,-6.2335 -1.9375,-3.7109 -2.0884,-5.6261 -2.0884,-26.49999 l 0,-22.5 4,0 4,0 0.6261,21.23642 c 0.6818,23.12567 1.2061,25.27727 6.6762,27.39937 3.5621,1.3819 11.6003,0.3969 15.5442,-1.9048 l 3.1535,-1.8404 0.5,-22.44531 0.5,-22.44528 4,0 4,0 0.2659,27.76872 0.2658,27.76867 -2.5072,0.9533 c -2.6086,0.9918 -5.5312,0.3945 -6.7091,-1.371 -0.4527,-0.6786 -2.5148,-0.4492 -6.0879,0.6771 -7.6498,2.4114 -15.3046,2.1973 -20.1391,-0.5633 z m 87.6616,1.1686 c -2.2238,-0.8279 -2.2507,-1.0623 -2.3064,-20.11987 -0.067,-22.7143 -0.6804,-25.42163 -6.3963,-28.21141 -3.81,-1.85955 -4.189,-1.86776 -10.5,-0.22726 -3.601,0.93606 -7.1098,2.4527 -7.7973,3.37032 -0.911,1.21595 -1.25,7.59814 -1.25,23.53476 l 0,21.86636 -4.25,-0.3075 -4.25,-0.3075 0,-27.99999 0,-28 3.3435,-0.32033 c 1.9736,-0.18909 4.0224,0.29402 5.0004,1.17907 1.4775,1.33708 2.3063,1.27912 7.6565,-0.53535 6.9878,-2.3699 14.6322,-2.03957 19.5123,0.84317 1.7994,1.06292 4.1051,3.91881 5.5527,6.87755 2.4296,4.96595 2.4705,5.45568 2.2051,26.394 -0.2573,20.29478 -0.3679,21.36988 -2.2705,22.06798 -1.1,0.4035 -3.0125,0.3568 -4.25,-0.104 z m 31.9537,-0.9557 c -8.9852,-4.6036 -12.8368,-14.5935 -11.9316,-30.94639 0.7305,-13.19755 3.6361,-19.30833 11.0621,-23.26469 3.4363,-1.83075 5.8294,-2.22759 13.6658,-2.26617 l 9.5,-0.0468 0.2519,-7.96119 c 0.3781,-11.95295 0.5881,-12.46115 5.1505,-12.46115 2.8732,0 3.9589,0.44886 4.2331,1.75 0.2028,0.9625 0.221,18.25249 0.04,38.42221 -0.2968,33.17028 -0.488,36.73618 -2.0021,37.34228 -0.9206,0.3685 -7.0739,0.8867 -13.6739,1.1516 -10.94,0.439 -12.3795,0.2871 -16.2963,-1.7197 z m 21.2145,-6.5534 c 1.3688,-0.5253 1.5818,-3.2775 1.5818,-20.44096 0,-14.04413 -0.3409,-20.04469 -1.1678,-20.55575 -0.6423,-0.39696 -4.3913,-0.75007 -8.3312,-0.78467 -13.091,-0.11499 -15.8512,3.93198 -15.3311,22.47856 0.3563,12.70432 1.5336,15.87362 6.9265,18.64512 2.489,1.2791 13.5417,1.7245 16.3218,0.6577 z m 33.5823,7.5452 c -3.3957,-1.4378 -7.0162,-4.9291 -8.1449,-7.8542 -0.5128,-1.3288 -0.954,-5.2434 -0.9805,-8.6991 -0.091,-11.92121 5.5551,-16.3514 22.0801,-17.32344 l 9.5448,-0.56145 0.3001,-4.63595 c 0.2431,-3.75413 -0.1698,-5.18074 -2.1707,-7.5 -2.4599,-2.85141 -2.523,-2.86405 -14.3001,-2.86405 l -11.8293,0 -0.3006,-2.5856 c -0.5143,-4.4243 1.7645,-5.25686 14.6139,-5.33936 9.9744,-0.064 12.1842,0.218 15.0822,1.92496 4.3683,2.57301 7.0066,6.16035 8.147,11.07739 1.1779,5.0788 1.2033,41.486 0.03,43.3393 -1.226,1.9369 -6.5121,1.7867 -8.5415,-0.2426 -1.5413,-1.5413 -1.8852,-1.5424 -4.8372,-0.016 -3.8205,1.9756 -15.2089,2.7553 -18.6935,1.2799 z m 20.3698,-9.2613 c 2.6108,-1.7106 2.7012,-2.0643 2.4209,-9.4769 l -0.2912,-7.69999 -8.8384,0 c -8.4449,0 -8.9459,0.12495 -11.25,2.80576 -3.1883,3.70947 -3.3077,10.28533 -0.2571,14.16353 2.0308,2.5817 2.5375,2.7173 8.8291,2.3618 4.1612,-0.2351 7.6959,-1.0463 9.3867,-2.1542 z m 38.0499,9.1786 c -4.8536,-2.3552 -5.4202,-5.1986 -5.4202,-27.20077 0,-15.34504 -0.316,-20.73465 -1.25,-21.31976 -0.6875,-0.43069 -3.275,-1.01975 -5.75,-1.30902 -4.2165,-0.4928 -4.5,-0.71497 -4.5,-3.52594 0,-2.90909 0.1667,-3.01515 5.5,-3.5 l 5.5,-0.5 0.302,-5.24265 c 0.3263,-5.66513 2.1826,-7.68436 6.4996,-7.07014 1.9179,0.27289 2.2622,1.07822 2.6984,6.31279 l 0.5,6 5.7414,0.29965 c 6.2013,0.32365 8.1373,1.94943 6.7878,5.70035 -0.5771,1.60414 -1.8883,2.09897 -6.6244,2.5 l -5.9048,0.5 -0.2708,19.03039 c -0.2019,14.1856 0.053,19.4642 1,20.7343 0.7583,1.0168 3.4842,2.0176 6.7594,2.4818 5.7869,0.82 7.4729,2.7875 4.9715,5.8015 -1.4157,1.7059 -13.2063,1.925 -16.5399,0.3075 z m 64.4517,-1.6538 c -4.5051,-2.3534 -5.8347,-3.7329 -8.3642,-8.6779 -2.8316,-5.5353 -3.0077,-6.5572 -3.0077,-17.4517 0,-13.31878 1.1395,-17.56044 6.2319,-23.19708 3.6473,-4.03713 10.5689,-6.87501 16.7681,-6.87501 5.6452,0 12.9154,2.79854 16.1653,6.2226 5.2186,5.49812 6.6112,9.37797 7.1192,19.83384 0.8363,17.21515 -2.7004,26.13375 -12.0989,30.50965 -7.4738,3.4797 -15.707,3.3482 -22.8137,-0.3644 z m 18.0595,-6.9533 c 5.5116,-2.8084 7.4114,-7.7479 7.4284,-19.31412 0.023,-15.33099 -3.8207,-21.10094 -14.0551,-21.10094 -5.4067,0 -8.9706,2.22227 -11.6074,7.23775 -2.6067,4.9583 -2.0745,25.05641 0.7762,29.31231 3.5919,5.3625 11.2094,7.0489 17.4579,3.865 z m -1266.460489,7.5016 c -0.2565,-0.6875 -0.5798,-16.1 -0.7186,-34.24999 l -0.2523,-33 -10.50003,-0.5 -10.5,-0.5 0,-3.5 0,-3.5 26.50003,0 26.499999,0 0,3.5 0,3.5 -10.499999,0.5 -10.5,0.5 -0.5334,34 c -0.2934,18.69999 -0.6309,34.11249 -0.75,34.24999 -0.7751,0.8945 -8.3626,0.027 -8.7457,-1 z m 830.182999,-3.9496 c -0.931,-7.7524 -0.7319,-48.18825 0.2758,-56.00133 1.6908,-13.10972 6.2827,-16.07882 25.7077,-16.6223 8.5435,-0.23903 13.8763,0.0278 15.25,0.76302 2.5617,1.37094 2.9292,6.53286 0.5308,7.45323 -0.87,0.33385 -7.1449,0.60699 -13.9443,0.60699 -11.6229,0 -12.5302,0.14424 -15.1682,2.4113 -2.7208,2.33831 -2.8057,2.70907 -2.8057,12.25 l 0,9.8387 16.5,0.5 16.5,0.5 0,3.5 0,3.5 -15.6482,0.27488 c -11.3188,0.19882 -15.946,0.63364 -16.7244,1.57158 -0.6448,0.77691 -1.1867,7.88216 -1.3518,17.72513 l -0.2756,16.4284 -4.1048,0.3004 -4.1047,0.3004 -0.6366,-5.3004 z m 382.98979,3.0007 c -1.0313,-3.8502 -0.722,-49.46484 0.3545,-52.29646 0.8683,-2.28363 1.4869,-2.58514 4.75,-2.3151 l 3.7518,0.31047 0,28 0,27.99999 -4.12,0.3011 c -3.5792,0.2617 -4.2009,-9e-4 -4.7363,-2 z m 83.8081,0.934 c -0.2669,-0.6957 -0.3653,-13.4082 -0.2186,-28.25 l 0.2668,-26.98509 3.2414,-0.31272 c 1.7828,-0.17199 4.1456,0.32057 5.2506,1.09459 1.7531,1.22788 2.7423,1.15865 7.7586,-0.54296 10.9678,-3.7204 21.1778,-0.65524 24.8398,7.45718 1.6937,3.75196 1.9096,6.72159 1.9096,26.26706 l 0,22.03684 -4,0 -4,0 -0.5,-21.04745 c -0.5616,-23.64235 -1.0232,-25.315 -7.5826,-27.47978 -3.0361,-1.00202 -4.7336,-0.91333 -10.0469,0.52493 -3.5165,0.95186 -6.6931,2.2153 -7.0592,2.80764 -0.3661,0.59235 -0.5613,8.70324 -0.4338,18.02421 0.1275,9.32095 -0.07,19.35995 -0.4381,22.30885 l -0.6698,5.3616 -3.9162,0 c -2.2351,0 -4.1245,-0.543 -4.4016,-1.2649 z M 750.76301,946.85654 c -0.3928,-0.39285 -0.7142,-3.06612 -0.7142,-5.94061 0,-5.55535 0.7704,-6.44032 5.6065,-6.44032 3.093,0 4.3823,3.12058 3.5142,8.50556 -0.5971,3.70341 -0.9008,4.01612 -4.1681,4.29203 -1.9383,0.16368 -3.8455,-0.0238 -4.2384,-0.41666 z m 538.25059,-1.57092 c -0.6516,-1.43762 -0.7317,-3.81864 -0.2122,-6.30472 0.8882,-4.25085 2.4495,-5.17335 6.8755,-4.0625 2.314,0.58077 2.451,0.9808 2.1709,6.33855 l -0.299,5.71866 -3.7441,0.31001 c -3.1031,0.25694 -3.9233,-0.0855 -4.7911,-2 z M 425.27581,864.67954 c -1.0259,-0.68532 -1.2123,-45.17796 -0.9606,-229.27713 0.341,-249.34449 -0.083,-230.47803 5.8374,-259.88326 10.7806,-53.54692 39.225,-107.42111 77.8453,-147.44035 46.2017,-47.87519 105.383,-78.42502 172.0509,-88.8139 12.6076,-1.96465 18.35,-2.26092 44,-2.27014 33.0001,-0.0119 44.5369,1.26666 71.689,7.94469 16.0669,3.95161 39.2346,11.80986 40.4448,13.71847 1.0415,1.64257 1.1489,115.52492 0.1095,116.1673 -0.4162,0.25721 -4.8037,-2.02047 -9.75,-5.0615 -76.3528,-46.94212 -173.4077,-36.45908 -237.8664,25.69227 -31.3309,30.20943 -49.9683,65.58383 -57.7017,109.51962 -2.8363,16.11392 -3.1015,43.26186 -0.5762,59 3.4966,21.79224 9.8792,41.90865 19.2367,60.6296 3.392,6.78631 14.4856,24.24869 21.8528,34.39864 2.1021,2.89614 -16.9552,36.31352 -32.6792,57.30372 l -8.7407,11.66804 -0.01,118.25 -0.01,118.25 -48.875,0 c -26.8813,0 -50.1688,0.23721 -51.75,0.52713 -1.5813,0.28993 -3.4479,0.14449 -4.148,-0.3232 z M 1137.0488,736.31509 c -61.3061,-3.23951 -118.3621,-24.91108 -168.97079,-64.18012 -13.1057,-10.1691 -36.9865,-33.85361 -47.7875,-47.39466 -37.7898,-47.37621 -60.0456,-103.41074 -65.2425,-164.2647 -0.6055,-7.08947 -0.9854,-97.6971 -0.9907,-236.25 l -0.01,-224.7500005 51,0 51,0 0,105.0000005 c 0,74.09783 0.3158,105 1.073,105 0.5902,0 5.8777,-3.77386 11.75,-8.38636 63.14599,-49.59883 143.38989,-72.00438 222.17699,-62.0358 101.6713,12.86402 189.4771,75.99333 233.5608,167.92216 15.2794,31.86258 23.7343,61.48101 28.0311,98.19599 2.2342,19.0907 1.4857,56.08362 -1.5337,75.80401 -8.0665,52.68364 -29.3809,101.47598 -62.6864,143.5 -9.3325,11.77546 -36.9265,39.12557 -48.3718,47.94424 -60.1251,46.3267 -128.4562,67.83426 -203,63.89524 z m 48.5,-106.27767 c 11.0354,-1.97336 22.1129,-4.77403 32.2943,-8.16478 10.8387,-3.6097 34.127,-15.1544 44.2057,-21.91408 49.5477,-33.23129 80.5811,-84.86567 86.964,-144.69354 6.3924,-59.9172 -19.1542,-124.4637 -65.255,-164.87431 -49.0933,-43.0338 -115.6772,-59.03825 -178.3692,-42.87379 -35.7404,9.21527 -65.6087,26.87906 -92.4257,54.65961 -56.47479,58.50391 -70.36039,145.71508 -34.89329,219.15351 10.54,21.82428 23.48109,39.70344 40.69969,56.23036 31.2865,30.02951 70.0163,48.40046 113.6047,53.88681 10.5801,1.33168 42.5898,0.48302 53.1748,-1.40979 z m -909.35419,105.4335 c -73.8174,-6.19238 -139.0852,-36.57194 -190.362199,-88.60599 -14.8938,-15.11369 -23.55271,-25.58279 -34.64647,-41.88932 -27.67654,-40.68126 -43.1892496,-81.8412 -50.3146396,-133.5 -2.01874,-14.63581 -1.70167,-59.43736 0.52726,-74.5 5.32085,-35.9572 14.1781896,-64.59359 29.3772496,-94.97867 43.6244,-87.21126 126.166799,-147.32197 223.274799,-162.59756 16.8686,-2.65352 56.2698,-3.74423 73.225,-2.02703 50.3142,5.09581 96.6313,21.62464 138.2732,49.34456 9.9595,6.62977 27.893,20.41922 31.3724,24.12294 l 2.235,2.37906 -9.7001,10.87835 c -17.8051,19.96782 -33.7746,42.77375 -44.2996,63.26373 -2.8312,5.51167 -5.5973,10.29914 -6.1469,10.63884 -0.5497,0.3397 -4.0282,-2.1807 -7.7301,-5.60089 -59.1676,-54.66505 -145.5108,-67.33534 -217.7307,-31.95056 -21.7079,10.63596 -38.1396,22.63932 -55.0342,40.20253 -26.7642,27.82336 -43.5306,59.55461 -51.0364,96.58905 -20.805599,102.65754 42.7589,203.23406 144.5706,228.75037 29.5286,7.40054 64.7623,7.4253 93.8699,0.066 18.1589,-4.59116 36.6111,-12.09344 51.4627,-20.92369 4.3079,-2.56135 8.1834,-4.657 8.6121,-4.657 1.6233,0 2.1485,16.68455 1.9982,63.47746 -0.1091,33.99027 -0.4943,48.98733 -1.299,50.58226 -2.519,4.99235 -41.864,15.80055 -70.7849,19.44488 -15.1042,1.90328 -45.6922,2.66689 -59.7132,1.49071 z"
     id="path3790"
     inkscape:connector-curvature="0" />
</svg>
